<?xml version="1.0" standalone="no"?>
<!DOCTYPE svg PUBLIC "-//W3C//DTD SVG 20010904//EN"
 "http://www.w3.org/TR/2001/REC-SVG-20010904/DTD/svg10.dtd">
<svg version="1.0" xmlns="http://www.w3.org/2000/svg"
 width="260.000000pt" height="260.000000pt" viewBox="0 0 260.000000 260.000000"
 preserveAspectRatio="xMidYMid meet">
<metadata>
Created by potrace 1.11, written by Peter Selinger 2001-2013
</metadata>
<g transform="translate(0.000000,260.000000) scale(0.100000,-0.100000)"
fill="#000000" stroke="none">
<path d="M343 2343 c3 -27 42 -469 88 -983 45 -514 84 -937 85 -939 2 -2 180
-53 395 -113 l392 -109 366 101 c201 56 380 105 396 111 l31 9 32 368 c18 202
57 642 87 977 30 336 55 613 55 618 0 4 -435 7 -966 7 l-967 0 6 -47z m1563
-425 c-4 -40 -9 -97 -12 -125 l-6 -53 -465 0 c-438 0 -464 -1 -459 -17 3 -10
8 -64 12 -120 l7 -103 443 0 443 0 -5 -47 c-3 -27 -18 -194 -34 -372 -16 -178
-31 -325 -32 -326 -5 -5 -477 -135 -490 -135 -13 0 -490 130 -496 135 -4 4
-32 300 -32 343 l0 32 119 0 119 0 8 -90 c5 -68 11 -93 23 -99 9 -5 69 -23
134 -40 l119 -32 131 36 c72 20 133 38 136 40 5 6 32 298 27 302 -1 2 -189 4
-417 6 l-414 2 -33 355 c-18 195 -30 361 -27 368 3 9 134 12 606 12 l602 0 -7
-72z"/>
</g>
</svg>
